<svg xmlns="http://www.w3.org/2000/svg" width="1000" height="543" viewBox="0 0 1000 543">
  <defs>
    <style>
      .cls-1 {
        font-size: 100px;
        text-anchor: middle;
        font-family: "Playfair Display";
      }

      .cls-1, .cls-2 {
        fill: #ff67be;
      }

      .cls-2 {
        fill-rule: evenodd;
      }
    </style>
  </defs>
  <text id="Del_Luna" data-name="Del Luna" class="cls-1" transform="matrix(1.915, 0, 0, 1.915, 496.066, 431.095)"><tspan x="0">Del Luna</tspan></text>
  <path id="Color_Fill_4" data-name="Color Fill 4" class="cls-2" d="M497.4,82.789h-1s-4.525-10.461-9-14a46.378,46.378,0,0,0-13-7v-1s9.87-3.952,14-8a33.559,33.559,0,0,0,8-13h1s1.27,6.593,8,13c2.95,2.809,13,8,13,8v1s-7.967,2.966-13,8A38.037,38.037,0,0,0,497.4,82.789Zm-51-2s15.911-2.34,29,3c8.613,3.514,15.242,12.555,18,20,1.756,4.74,3.521,15.878,1,22-1.52,3.69-11.024,15.052-21,15-22.62-.119-21.916-18.551-22-20,2.808-2.68,2.244-3.745,8-4,2.287,4.364,3.9,10.231,9,12,1.7,1.149,4.347,1.011,7,0,1.854-.708,3.814-1.512,5-4,5.042-5.465,1.253-17.24-3-22-11.193-12.525-36.681-8.208-44,5-19.575,35.321,22.379,70.67,41,83,7.022,4.649,25,14,25,14s49.493-27.856,62-57c8.681-20.232,3.381-38.679-8-47-7.56-5.528-19.677-8.653-28-5-6.236,2.736-11,12-11,12s-3.338,8.368-1,13c3.64,7.212,15.216,10.336,21-3,1.867-4.308,6.58-1.483,8,1-0.386-.675,3.594,17.344-12,23-17.448,6.327-34.844-14.87-31-31,4.378-18.373,15.349-30.943,38-31,4,0,8,1,12,1,23.553,6.653,42.243,35.911,30,68-6.795,17.809-23.816,36.276-39,46,0.63,1.754.193,0.971,1,2,3.859,18.293,21.261,33.376,39,38,16.843,4.39,32.687-4.093,36-14,13.494-16.152-11.742-38.463-20-19-1.05,1.549-1.031,4.085-1,7,18.684,11.183,0,12,0,12s-6.947-2.658-10-8c-2.945-5.154-2-12-2-12s3.583-14.091,14-17c14.146-3.951,19.907,4.108,27,5,4.271-5.6,12.06-7.978,19-11,32.506-14.159,67.356-10.1,85,16,5.714,8.454,11.276,23.188,6,37-8.063,21.1-44.44,36.8-61,12-7.454-11.161-3.418-32.144,8-36,15.424-7.631,23.482,1.608,25,3,6.92,6.345,7.778,22.376-4,17-1.047-.478-1.017-14.464-11-13-2.069.3-4.216,1.535-6,2-6.974,3.63-8.5,24.223,5,29,7.9,1.753,22.3,2.375,32-15,12-21.489-11.354-40.555-26-45-22.586-6.856-65.993,4.7-66,25,2.79,4.839-2.033,13.5-4,17-6.509,11.593-24.226,25.983-46,21-26.8-6.134-44.738-19.535-55-42-1.754.63-.972,0.192-2,1-9.715,2.994-24,12-24,12s-21.045-6.833-27-13c-1.754.63-.972,0.192-2,1-3.593,3.652-4.928,8.741-8,13-6.475,8.975-18.7,17.966-29,23-25.485,12.448-58.416.855-67-19-2.856-6.607-1.4-13.612-1-21-6.273-4.258-12.03-10.542-19-14-22.271-11.049-58.669-5.9-70,11-20.729,30.906,21.868,59.127,36,34,3.482-3.69,2-13,2-13s-7.442-16.181-19-4c-1.857,1.956-3,8-3,8a4.681,4.681,0,0,1-2,2,5.463,5.463,0,0,1-3,0s-3.757-2.244-3-8a19.7,19.7,0,0,1,3-8,30.407,30.407,0,0,1,5-5c6.7-5.585,27.631-4.749,33,15,5.8,21.325-16.48,39.987-38,34-14.413-4.011-24.521-15.891-28-31-8.794-38.181,42.367-63.907,79-52,7.658,2.489,17.234,5.861,24,10,4.06,2.483,7.015,6.27,12,8,7.731-11.645,28.123-5.323,34,4,9.763,15.668-8,27-8,27s-4.9,1.915-7,0c-4.305-3.919,1.8-8.774,5-12,4.906-4.944,0-10,0-10s-2.111-2.515-4-3a17.92,17.92,0,0,0-7-1,13.085,13.085,0,0,0-9,5c-2.972,4.286-3.645,13.8-2,19,3.441,10.883,24.752,20.7,42,15,15.618-5.161,34.8-20.946,36-40-16.911-10.535-33.217-29.614-40-50-2.4-7.213-2.64-25.893,0-33,3.638-9.8,12.338-21.037,21-26C438.982,82.733,446.4,80.789,446.4,80.789Zm-29,105s-5.65-11.6-22-17c-7.407-2.447-17.047.879-20-6-8-11.825,14.42-17.718,30-2C414.846,170.323,417.4,185.789,417.4,185.789ZM616.054,164.45c-4.308,2.7-12.773,2.891-21.659,7.339-7.257,3.632-13.826,13.428-18,15,0-21.352,23-33,23-33s9.7-3.885,15-2C619.834,153.722,620.824,161.463,616.054,164.45ZM355.4,203.789c-0.4,2.245-2.974,9.226-4,17-1.01,7.646.535,16.082-1,19-2.74,5.205-9-1-9-1s-4.471-11.3-2-20C341.791,210.351,350.045,204.514,355.4,203.789Zm283-1s7.042,9.851,5,19c-5.448,24.408,5,20,5,20s5.84,3.268,6-17C654.489,212.894,638.4,202.789,638.4,202.789Z"/>
</svg>
