<svg xmlns="http://www.w3.org/2000/svg" width="1000" height="1000" viewBox="0 0 1000 1000">
  <defs>
    <style>
      .cls-1 {
        fill: #feeaf0;
        fill-rule: evenodd;
      }

      .cls-2, .cls-3 {
        font-size: 100px;
        text-anchor: middle;
      }

      .cls-2 {
        fill: #ff67be;
        font-family: "Playfair Display";
      }

      .cls-3 {
        fill: #535b6b;
        font-family: "Source Serif Variable";
        font-weight: 600;
      }
    </style>
  </defs>
  <path id="Color_Fill_2" data-name="Color Fill 2" class="cls-1" d="M575,370s30.579-11.1,55-6c23.369,4.879,40.4,25.578,50,42,8.712,14.9,8.828,42.038,0,61-9.736,20.914-29,33-29,33s23.809,17.911,32,44c6.748,21.494,1.673,44.835-10,62-11.077,16.288-27.177,26.312-40,30-30.1,8.657-58-5-58-5s-3.565,29.389-20,49c-13.9,16.585-39.3,23.889-56,24-18.818.125-44.277-11.605-58-29-14.691-18.623-16-44-16-44s-22.355,11.074-45,8c-23.631-3.208-47.778-20.893-57-37-10.275-17.947-11.974-47.05-2-69,8.852-19.481,29-33,29-33s-22.987-11.968-31-36c-7.145-21.428-6.029-47.138,3-63,9.5-16.7,28.553-33.914,53-38,21.321-3.564,50,7,50,7s1.745-25.373,16-44c13.666-17.857,38.427-29,58-29,17.417,0,41.385,7.242,56,25C570.4,340.717,575,370,575,370Z"/>
  <text id="Del_Luna" data-name="Del Luna" class="cls-2" transform="matrix(2.151, 0, 0, 2.151, 498.817, 565.912)"><tspan x="0">Del Luna</tspan></text>
  <text id="Store" class="cls-3" transform="translate(500 631.02) scale(0.466)"><tspan x="0">Store</tspan></text>
</svg>
