<svg id="Capa_1" enable-background="new 0 0 512.256 512.256" height="512" viewBox="0 0 512.256 512.256" width="512" xmlns="http://www.w3.org/2000/svg"><g><path d="m349.365 512.252h-227.598v-121.991c0-21.614 5.943-41.84 16.283-59.134 1.29-2.157 6.934-2.45 8.358-4.512 20.816-30.162 51.332-45.333 90.752-45.333 40.079 0 66.656 15.611 87.342 46.628 1.577 2.364 11.791 12.066 13.194 14.549 9.455 16.739 11.671 27.206 11.671 47.802v121.991z" fill="#dc8758"/><path d="m352.554 390.257v121.999h-21.276v-121.999c0-60.148-46.011-109.532-104.751-114.892 3.504-.328 7.052-.491 10.632-.491 31.864 0 59.42 14.984 80.303 35.867 6.599 6.599 10.691 12.879 15.543 20.912.577.956 4.148.964 4.698 1.938 9.455 16.737 14.851 36.07 14.851 56.666z" fill="#c86d36"/><path d="m337.695 333.595c-3.612 2.148-6.414 2.427-10.174 4.339-1.882.957-4.668 3.638-6.585 4.534-24.618 11.508-52.083 17.935-81.054 17.935-37.418 0-72.329-10.723-101.828-29.273 20.142-33.7 56.984-56.265 99.106-56.265 31.861 0 60.713 12.911 81.594 33.802 7.386 7.385 13.774 15.766 18.941 24.928z" fill="#f5f8f9"/><path d="m337.695 333.595c-5.423 3.225-11.011 6.183-16.762 8.864-16.763-36.812-52.311-63.25-94.402-67.091 3.502-.329 7.046-.493 10.631-.493 31.861 0 60.713 12.911 81.594 33.792 7.375 7.375 13.763 15.756 18.93 24.908-.002.01.009.01.009.02z" fill="#e8edf2"/><path d="m181.195 427.761 27.98 17.284 27.981-17.284 27.985 17.284 27.985-17.284v45.847l-27.985 17.284-27.985-17.284-27.981 17.284-27.98-17.284z" fill="#f5f8f9"/><path d="m293.128 427.761v45.85l-21.158 13.065v-45.85z" fill="#e8edf2"/><g fill="#fed2a4"><path d="m336.319 196.534h13.92c11.955 0 21.646-9.691 21.646-21.646 0-11.955-9.691-21.646-21.646-21.646h-13.92z"/><path d="m137.556 195.379h-13.549c-11.636 0-21.069-9.433-21.069-21.069 0-11.636 9.433-21.069 21.069-21.069h13.549z"/><path d="m237.013 299.375c-55.41 0-100.328-44.918-100.328-100.328v-78.096l127.031-67.915 73.625 79.23v66.781c0 55.41-44.918 100.328-100.328 100.328z"/></g><path d="m337.346 132.262v66.78c0 55.419-44.922 100.33-100.33 100.33-3.606 0-7.158-.192-10.668-.565 50.394-5.323 89.662-47.951 89.662-99.764v-89.737z" fill="#ffbd86"/><g><g><path d="m188.08 205.837c-4.255 0-7.703-3.448-7.703-7.703v-18.739c0-4.255 3.448-7.703 7.703-7.703s7.703 3.448 7.703 7.703v18.739c0 4.255-3.448 7.703-7.703 7.703z" fill="#537983"/></g><g><path d="m285.946 205.837c-4.255 0-7.703-3.448-7.703-7.703v-18.739c0-4.255 3.448-7.703 7.703-7.703s7.703 3.448 7.703 7.703v18.739c.001 4.255-3.448 7.703-7.703 7.703z" fill="#537983"/></g></g><g><path d="m237.361 249.908c-8.751 0-17.033-3.349-23.323-9.432-3.058-2.958-3.14-7.835-.183-10.893 2.957-3.059 7.834-3.142 10.893-.183 3.401 3.289 7.88 5.1 12.612 5.1 4.486 0 8.791-1.649 12.124-4.644 3.165-2.844 8.035-2.583 10.879.582s2.583 8.035-.582 10.879c-6.164 5.54-14.127 8.591-22.42 8.591z" fill="#537983"/></g><path d="m332.169 153.519c-23.143-5.881-27.642-28.688-27.642-28.688-2.755-8.577-4.094-15.69-5.238-24.626l50.902-31.799s23.541 38.787 3.423 85.11z" fill="#537983"/><path d="m353.618 153.519h-19.235c12.747-32.806 3.959-61.47-1.598-74.237l17.41-10.877s23.533 38.791 3.423 85.114z" fill="#3e5959"/><path d="m122.251 153.313c-8.865-21.697-16.119-44.286-15.2-67.979.82-21.143 11.186-48.071 27.409-62.399 11.198-9.89 24.632-16.883 39.337-19.726 10.401-2.011 21.64-3.117 32.457-3.205 14.359-.116 28.573 2.061 42.818 3.55 18.101 1.892 35.345 5.823 53.334 8.296 15.874 2.182 32.098 3.037 48.032.972 13.702-1.776 26.572-9.376 40.633-8.923 17.144.553 20.067 19.82 17.372 33.023-5.187 25.413-17.229 46.502-39.325 61.11-9.47 6.26-19.807 11.132-30.382 15.209-44.406 17.122-93.144 20.423-140.166 17.368-8.863-.576-17.713-1.349-26.55-2.239 0 0-4.189 19.062-27.332 24.943z" fill="#537983"/><path d="m408.442 36.924c-5.187 25.411-17.235 46.497-39.328 61.103-9.47 6.265-19.803 11.134-30.382 15.212-44.402 17.122-93.139 20.429-140.16 17.369-8.864-.575-17.718-1.345-26.551-2.239 0 0-4.191 19.06-27.332 24.945h-19.197c15.648-3.98 25.139-21.662 29.645-32.652 2.172-5.298 7.536-8.553 13.24-8.044 5.489.49 10.984.922 16.483 1.279 47.021 3.061 95.758-.246 140.16-17.369 10.579-4.078 20.912-8.946 30.382-15.211 22.104-14.606 34.141-35.692 39.328-61.103.986-4.858 1.222-10.548.257-15.807 13.671 3.152 15.93 20.386 13.455 32.517z" fill="#3e5959"/><g><g><g><path d="m188.893 418.535v93.714h-15.407v-93.714c0-4.252 3.451-7.703 7.703-7.703 4.263 0 7.704 3.451 7.704 7.703z" fill="#ac5e2e"/></g></g><g><g><path d="m300.828 418.535v93.714h-15.407v-93.714c0-4.252 3.451-7.703 7.703-7.703 4.253 0 7.704 3.451 7.704 7.703z" fill="#ac5e2e"/></g></g></g></g></svg>