<svg id="Capa_1" enable-background="new 0 0 512 512" height="512" viewBox="0 0 512 512" width="512" xmlns="http://www.w3.org/2000/svg"><g><g><path d="m384.514 504.504h-257.097v-86.258c0-70.995 57.553-128.548 128.548-128.548 70.995 0 128.548 57.553 128.548 128.548v86.258z" fill="#fed2a4"/></g><g><path d="m384.518 418.241v86.263h-20.889v-86.263c0-35.5-14.392-67.627-37.652-90.887-20.941-20.951-49.078-34.696-80.38-37.223 3.415-.282 6.883-.428 10.371-.428 35.49 0 67.637 14.382 90.897 37.652 23.26 23.259 37.653 55.386 37.653 90.886z" fill="#ffbd86"/></g><g><path d="m384.516 418.241v86.263h-257.097v-86.263c0-49.537 28.022-92.526 69.079-113.989-.376 2.694-.574 5.452-.574 8.24 0 33.161 26.884 60.044 60.044 60.044s60.044-26.884 60.044-60.044c0-2.799-.188-5.546-.564-8.24 11.635 6.089 22.226 13.901 31.417 23.092 23.259 23.26 37.651 55.408 37.651 90.897z" fill="#ee6161"/></g><g><path d="m384.516 418.241v86.263h-20.889v-86.263c0-35.5-14.392-67.627-37.652-90.887-3.248-3.248-6.664-6.319-10.235-9.201.177-1.859.272-3.75.272-5.661 0-2.789-.188-5.536-.564-8.22 11.635 6.068 22.226 13.881 31.417 23.082 23.259 23.26 37.651 55.387 37.651 90.887z" fill="#e94444"/></g><g><path d="m359.583 222.544h13.988c12.013 0 21.752-9.739 21.752-21.752 0-12.013-9.739-21.752-21.752-21.752h-13.988z" fill="#fed2a4"/></g><g><path d="m152.417 222.544h-13.988c-12.013 0-21.752-9.739-21.752-21.752 0-12.013 9.739-21.752 21.752-21.752h13.988z" fill="#fed2a4"/></g><g><path d="m256 322.625c-57.207 0-103.583-46.376-103.583-103.583v-123.178h103.583 103.583v123.178c0 57.207-46.376 103.583-103.583 103.583z" fill="#fed2a4"/></g><g><path d="m359.587 95.868v123.177c0 57.202-46.375 103.578-103.588 103.578-3.379 0-6.727-.161-10.025-.481 52.511-5.043 93.563-49.273 93.563-103.097v-123.177z" fill="#ffbd86"/></g><g><path d="m351.14 7.496h-113.014c-19.8 0-36.551 13.027-42.166 30.976-1.28 4.09-4.968 6.946-9.254 6.946h-1.947c-17.862 0-32.342 14.48-32.342 32.342v101.279s29.975-15.955 40.66-54.46c1.149-4.14 4.964-6.974 9.26-6.974h53.39.547 53.39c4.296 0 8.111 2.834 9.26 6.974 10.685 38.505 40.66 54.46 40.66 54.46v-76.666c0-4.127 2.653-7.724 6.536-9.123 17.029-6.135 29.205-22.427 29.205-41.57-.001-24.402-19.783-44.184-44.185-44.184z" fill="#537983"/></g><g><path d="m395.326 51.678c0 19.148-12.18 35.438-29.203 41.573-3.89 1.393-6.536 4.992-6.536 9.123v76.661s-9.714-5.163-20.04-16.722v-67.217c0-4.13 2.657-7.719 6.536-9.123 17.032-6.135 29.213-22.426 29.213-41.573 0-12.201-4.942-23.248-12.942-31.238-2.015-2.015-4.211-3.83-6.586-5.423 10.346 1.073 19.639 5.724 26.616 12.702 8 7.989 12.942 19.037 12.942 31.237z" fill="#3e5959"/></g><g><path d="m205.479 191.256c-4.14 0-7.496 3.356-7.496 7.496v19.347c0 4.141 3.356 7.496 7.496 7.496s7.496-3.356 7.496-7.496v-19.347c.001-4.14-3.356-7.496-7.496-7.496z"/><path d="m306.521 191.256c-4.14 0-7.496 3.356-7.496 7.496v19.347c0 4.141 3.356 7.496 7.496 7.496s7.496-3.356 7.496-7.496v-19.347c0-4.14-3.356-7.496-7.496-7.496z"/><path d="m269.181 251.192c-3.525 3.166-8.078 4.911-12.822 4.911-5.005 0-9.743-1.916-13.34-5.395-2.977-2.878-7.722-2.798-10.6.178s-2.799 7.722.177 10.6c6.408 6.197 14.847 9.61 23.762 9.61 8.449 0 16.562-3.108 22.842-8.753 3.08-2.767 3.333-7.506.566-10.586-2.766-3.08-7.506-3.334-10.585-.565z"/><path d="m373.572 171.543h-6.492v-69.169c0-.913.62-1.725 1.581-2.071 20.432-7.362 34.16-26.902 34.16-48.622-.001-28.497-23.185-51.681-51.681-51.681h-20.804c-4.14 0-7.496 3.356-7.496 7.496 0 4.141 3.356 7.496 7.496 7.496h20.804c20.23 0 36.687 16.458 36.687 36.688 0 15.42-9.745 29.291-24.249 34.518-6.873 2.475-11.491 8.976-11.491 16.176v61.843c-8.714-7.789-20.308-21.344-25.94-41.641-2.036-7.34-8.815-12.466-16.483-12.466h-107.327c-7.669 0-14.447 5.126-16.483 12.466-5.633 20.299-17.23 33.857-25.94 41.643 0 0 0-86.457 0-86.458 0-.548.018-1.095.054-1.642.429-6.542 3.516-12.74 8.447-17.056 5.225-4.574 11.509-6.148 18.293-6.149 7.531 0 14.125-4.905 16.408-12.204 4.812-15.383 18.882-25.718 35.012-25.718h56.992c4.14 0 7.496-3.356 7.496-7.496 0-4.141-3.356-7.496-7.496-7.496h-56.992c-22.72 0-42.541 14.561-49.321 36.234-.603 1.928-2.423 1.688-4.046 1.688-21.967 0-39.839 17.872-39.839 39.839v93.783h-6.492c-16.128 0-29.249 13.12-29.249 29.248s13.121 29.248 29.249 29.248h7.043c2.878 29.133 17.049 54.997 38.074 73.13-38.189 24.115-63.625 66.667-63.625 115.076v24.504c0 4.141 3.356 7.496 7.496 7.496s7.496-3.356 7.496-7.496v-24.504c0-41.853 21.352-78.809 53.733-100.557 2.665 34.821 31.829 62.345 67.321 62.345 35.491 0 64.655-27.522 67.321-62.342 32.378 21.749 53.729 58.704 53.729 100.555v78.762h-46.229v-81.608c0-4.141-3.356-7.496-7.496-7.496s-7.496 3.356-7.496 7.496v81.608h-119.593v-81.608c0-4.141-3.356-7.496-7.496-7.496s-7.496 3.356-7.496 7.496v81.608h-46.298v-19.901c0-4.141-3.356-7.496-7.496-7.496s-7.496 3.356-7.496 7.496v27.398c0 4.141 3.356 7.496 7.496 7.496h257.096c4.14 0 7.496-3.356 7.496-7.496v-86.258c0-48.39-25.408-90.941-63.571-115.063 21.034-18.134 35.212-44.003 38.09-73.143h7.043c16.128 0 29.248-13.12 29.248-29.248 0-16.13-13.121-29.251-29.248-29.251zm-228.651 43.504h-6.492c-7.861 0-14.256-6.395-14.256-14.256 0-7.86 6.395-14.256 14.256-14.256h6.492zm111.047 149.993c-27.465 0-50.061-21.184-52.344-48.067 15.613 8.384 33.448 13.148 52.377 13.148 18.901 0 36.711-4.75 52.308-13.112-2.3 26.867-24.889 48.031-52.341 48.031zm96.119-145.998c0 52.983-43.104 96.086-96.086 96.086-52.982 0-96.086-43.104-96.086-96.086v-35.818c9.099-6.047 31.232-23.647 40.387-56.64.242-.873 1.079-1.482 2.036-1.482h107.326c.957 0 1.794.609 2.036 1.483 9.156 32.992 31.289 50.592 40.387 56.639zm21.485-3.995h-6.492v-28.511h6.492c7.86 0 14.256 6.395 14.256 14.256-.001 7.86-6.396 14.255-14.256 14.255z"/></g></g></svg>