<svg id="Capa_1" enable-background="new 0 0 512 512" height="512" viewBox="0 0 512 512" width="512" xmlns="http://www.w3.org/2000/svg"><g><path d="m256 0c-82.842 0-150 67.158-150 150v210h150 150v-210c0-82.842-67.158-150-150-150z" fill="#ffbe40"/><path d="m406 150c0-82.842-67.158-150-150-150v360h150z" fill="#ff9f40"/><path d="m376 300-15 15c0 55.851-38.333 102.374-90 115.757v53.899l15 27.344h75l15-32 15 32h60v-137c0-41.4-33.6-75-75-75z" fill="#e63a3a"/><path d="m151 315-15-15c-41.4 0-75 33.6-75 75v137h60l15-32 15 32h75l15-34.448v-46.794c-51.667-13.384-90-59.907-90-115.758z" fill="#ff7559"/><path d="m322.899 300c-2.448 0-4.585-.936-6.899-1.39l-30 16.39h-30-30l-30-16.39c-2.314.454-4.451 1.39-6.899 1.39h-53.101v15c0 55.851 38.333 102.374 90 115.757v81.243h30 30v-81.243c51.667-13.383 90-59.907 90-115.757v-15z" fill="#ffdf40"/><path d="m286 430.757c51.667-13.383 90-59.907 90-115.757v-15h-53.101c-2.448 0-4.585-.936-6.899-1.39l-30 16.39h-30v197h30z" fill="#ffbe40"/><path d="m121 450h30v62h-30z" fill="#e63a3a"/><path d="m361 450h30v62h-30z" fill="#cc1f3c"/><path d="m346 150v-30h-45c-17.999 0-33.9-7.8-45-20.4-11.1 12.6-27.001 20.4-45 20.4h-45v30c0 44.072 20.733 94.772 60 113.099 0 17.953-13.032 32.188-30 35.511v16.39c0 33.091 26.924 60 60 60s60-26.909 60-60v-16.39c-16.968-3.323-30-17.558-30-35.511 38.295-17.873 60-67.619 60-113.099z" fill="#ffd9b3"/><path d="m316 315v-16.39c-16.968-3.323-30-17.558-30-35.511 38.295-17.873 60-67.619 60-113.099v-30h-45c-17.999 0-33.9-7.8-45-20.4v275.4c33.076 0 60-26.909 60-60z" fill="#fb9"/></g></svg>